<mxfile host="app.diagrams.net" modified="2022-06-28T12:18:38.517Z" agent="5.0 (Macintosh; Intel Mac OS X 10_15_7) AppleWebKit/537.36 (KHTML, like Gecko) Chrome/102.0.0.0 Safari/537.36" etag="iVAYI_hWuMND5eaxxjcN" version="20.0.3" type="github">
  <diagram id="LAn1Q859SAejxcJchOHL" name="Page-1">
    <mxGraphModel dx="403" dy="260" grid="0" gridSize="10" guides="1" tooltips="1" connect="1" arrows="1" fold="1" page="1" pageScale="1" pageWidth="827" pageHeight="1169" math="0" shadow="0">
      <root>
        <mxCell id="0" />
        <mxCell id="1" parent="0" />
        <mxCell id="yZRIZt83_thC88_hr11W-3" value="" style="verticalLabelPosition=bottom;verticalAlign=top;html=1;shape=mxgraph.basic.orthogonal_triangle;flipH=1;" vertex="1" parent="1">
          <mxGeometry x="141" y="96" width="100" height="40" as="geometry" />
        </mxCell>
        <mxCell id="yZRIZt83_thC88_hr11W-4" value="" style="verticalLabelPosition=bottom;verticalAlign=top;html=1;shape=mxgraph.basic.orthogonal_triangle;flipH=0;" vertex="1" parent="1">
          <mxGeometry x="150" y="82" width="100" height="40" as="geometry" />
        </mxCell>
      </root>
    </mxGraphModel>
  </diagram>
</mxfile>
